<svg width="24" height="24" viewBox="0 0 24 24" fill="none" xmlns="http://www.w3.org/2000/svg">
<path fill-rule="evenodd" clip-rule="evenodd" d="M5.86407 1.81313C5.98307 1.85362 6.16662 1.94811 6.272 2.01563C6.91781 2.44092 8.716 4.72591 9.30412 5.86676C9.64061 6.51816 9.75273 7.00082 9.64744 7.3586C9.53861 7.74337 9.35847 7.9459 8.55288 8.59056C8.22992 8.85041 7.92738 9.11706 7.87983 9.18797C7.75745 9.36352 7.65884 9.70774 7.65884 9.95079C7.66229 10.5144 8.02938 11.5372 8.51207 12.3236C8.88595 12.9344 9.55557 13.7175 10.2185 14.3183C10.9969 15.0271 11.6835 15.5098 12.4585 15.8912C13.4545 16.3839 14.063 16.5088 14.5083 16.303C14.6205 16.2523 14.7394 16.1848 14.7768 16.1545C14.8108 16.1241 15.0726 15.8068 15.3581 15.4558C15.9087 14.7672 16.0345 14.6558 16.4118 14.5276C16.8912 14.3656 17.3806 14.4094 17.8735 14.6592C18.2474 14.8516 19.0632 15.3545 19.5901 15.719C20.2835 16.2017 21.7655 17.4033 21.9662 17.6429C22.3196 18.0749 22.3809 18.6284 22.1429 19.2394C21.8913 19.884 20.9124 21.0924 20.2291 21.6088C19.6105 22.0746 19.172 22.2534 18.5942 22.2805C18.1183 22.3041 17.9211 22.2636 17.3126 22.0138C12.5402 20.0596 8.7296 17.1434 5.7043 13.137C4.12369 11.0444 2.92035 8.87407 2.09771 6.62282C1.61845 5.30987 1.59468 4.73945 1.98894 4.06778C2.15893 3.78428 2.88296 3.08221 3.40983 2.69071C4.28685 2.04265 4.69133 1.80299 5.01427 1.73551C5.23521 1.68824 5.6193 1.72537 5.86407 1.81313Z" fill="url(#paint0_linear)"/>
<defs>
<linearGradient id="paint0_linear" x1="11.9996" y1="1.71484" x2="12.0566" y2="20.6713" gradientUnits="userSpaceOnUse">
<stop stop-color="#8AD336"/>
<stop offset="1" stop-color="#509600"/>
</linearGradient>
</defs>
</svg>
